<svg xmlns="http://www.w3.org/2000/svg" xmlns:xlink="http://www.w3.org/1999/xlink" width="500" zoomAndPan="magnify" viewBox="0 0 375 374.999991" height="500" preserveAspectRatio="xMidYMid meet" version="1.0"><defs><clipPath id="f8f59beca1"><path d="M 43.828125 0 L 148 0 L 148 163 L 43.828125 163 Z M 43.828125 0 " clip-rule="nonzero"/></clipPath><clipPath id="2a93d5b0be"><path d="M 43.828125 0 L 95 0 L 95 151 L 43.828125 151 Z M 43.828125 0 " clip-rule="nonzero"/></clipPath></defs><path fill="#9dc6dc" d="M 144.453125 261.605469 C 146.195312 260.160156 148.769531 260.351562 150.28125 262.035156 L 169.105469 282.976562 C 170.707031 284.757812 170.503906 287.519531 168.65625 289.050781 L 167.757812 289.792969 L 166.871094 290.527344 C 165.023438 292.058594 162.273438 291.742188 160.820312 289.832031 L 143.785156 267.414062 C 142.414062 265.609375 142.710938 263.046875 144.453125 261.605469 Z M 144.453125 261.605469 " fill-opacity="1" fill-rule="nonzero"/><path fill="#3f395d" d="M 164.195312 293.035156 C 163.972656 293.035156 163.746094 293.019531 163.523438 292.996094 C 161.949219 292.8125 160.558594 292.019531 159.597656 290.761719 L 142.5625 268.339844 C 140.6875 265.875 141.085938 262.394531 143.472656 260.421875 C 145.859375 258.445312 149.351562 258.703125 151.421875 261.007812 L 170.246094 281.949219 C 171.304688 283.125 171.824219 284.644531 171.707031 286.222656 C 171.589844 287.800781 170.855469 289.226562 169.636719 290.234375 L 167.851562 291.710938 C 166.804688 292.574219 165.527344 293.035156 164.195312 293.035156 Z M 145.433594 262.789062 C 144.320312 263.710938 144.132812 265.332031 145.007812 266.480469 L 162.042969 288.902344 C 162.492188 289.488281 163.140625 289.859375 163.875 289.945312 C 164.605469 290.03125 165.324219 289.816406 165.894531 289.34375 L 167.679688 287.867188 C 168.246094 287.398438 168.589844 286.730469 168.644531 285.996094 C 168.699219 285.257812 168.457031 284.550781 167.964844 284.003906 L 149.140625 263.0625 C 148.171875 261.988281 146.546875 261.867188 145.433594 262.789062 Z M 145.433594 262.789062 " fill-opacity="1" fill-rule="nonzero"/><path fill="#9dc6dc" d="M 158.746094 289.640625 C 158.746094 296.589844 163.867188 302.226562 170.1875 302.226562 C 176.507812 302.226562 177.539062 296.589844 177.539062 289.640625 C 177.539062 282.691406 176.507812 277.058594 170.1875 277.058594 C 163.867188 277.058594 158.746094 282.691406 158.746094 289.640625 Z M 158.746094 289.640625 " fill-opacity="1" fill-rule="nonzero"/><path fill="#3f395d" d="M 170.1875 303.761719 C 163.03125 303.761719 157.210938 297.425781 157.210938 289.640625 C 157.210938 281.855469 163.03125 275.519531 170.1875 275.519531 C 179.074219 275.519531 179.074219 285.058594 179.074219 289.640625 C 179.074219 294.222656 179.074219 303.761719 170.1875 303.761719 Z M 170.1875 278.59375 C 164.722656 278.59375 160.28125 283.546875 160.28125 289.640625 C 160.28125 295.734375 164.722656 300.6875 170.1875 300.6875 C 174.425781 300.6875 176.003906 297.695312 176.003906 289.640625 C 176.003906 281.585938 174.425781 278.59375 170.1875 278.59375 Z M 170.1875 278.59375 " fill-opacity="1" fill-rule="nonzero"/><path fill="#9dc6dc" d="M 114.964844 220.023438 L 112 222.414062 L 109.035156 224.800781 C 104.03125 228.835938 103.621094 236.320312 108.152344 240.878906 L 133.953125 266.835938 C 137.863281 270.773438 144.113281 271.117188 148.433594 267.632812 C 152.75 264.152344 153.742188 257.96875 150.730469 253.3125 L 130.855469 222.574219 C 127.367188 217.175781 119.96875 215.988281 114.964844 220.023438 Z M 114.964844 220.023438 " fill-opacity="1" fill-rule="nonzero"/><path fill="#3f395d" d="M 141.632812 271.578125 C 138.445312 271.578125 135.273438 270.347656 132.863281 267.921875 L 107.0625 241.964844 C 104.597656 239.480469 103.292969 236.054688 103.484375 232.558594 C 103.675781 229.066406 105.347656 225.800781 108.074219 223.605469 L 114 218.828125 C 116.722656 216.632812 120.269531 215.691406 123.722656 216.246094 C 127.175781 216.800781 130.246094 218.800781 132.148438 221.742188 L 152.019531 252.476562 C 155.46875 257.8125 154.34375 264.84375 149.394531 268.832031 C 147.113281 270.671875 144.367188 271.578125 141.632812 271.578125 Z M 121.765625 219.160156 C 119.65625 219.160156 117.589844 219.878906 115.925781 221.21875 L 110 225.996094 C 107.953125 227.648438 106.695312 230.101562 106.550781 232.726562 C 106.40625 235.355469 107.386719 237.929688 109.242188 239.796875 L 135.042969 265.753906 C 138.410156 269.140625 143.75 269.433594 147.46875 266.4375 C 151.1875 263.441406 152.035156 258.15625 149.441406 254.144531 L 129.570312 223.410156 C 128.140625 221.199219 125.832031 219.695312 123.234375 219.277344 C 122.746094 219.199219 122.253906 219.160156 121.765625 219.160156 Z M 121.765625 219.160156 " fill-opacity="1" fill-rule="nonzero"/><path fill="#9dc6dc" d="M 154.878906 267.632812 C 154.878906 268.058594 154.835938 268.476562 154.753906 268.890625 C 154.671875 269.308594 154.546875 269.710938 154.386719 270.101562 C 154.226562 270.492188 154.027344 270.863281 153.792969 271.214844 C 153.554688 271.566406 153.289062 271.894531 152.988281 272.191406 C 152.691406 272.492188 152.363281 272.757812 152.011719 272.996094 C 151.660156 273.230469 151.289062 273.429688 150.898438 273.589844 C 150.507812 273.75 150.105469 273.875 149.691406 273.957031 C 149.273438 274.039062 148.855469 274.082031 148.433594 274.082031 C 148.011719 274.082031 147.589844 274.039062 147.175781 273.957031 C 146.761719 273.875 146.359375 273.75 145.96875 273.589844 C 145.574219 273.429688 145.203125 273.230469 144.851562 272.996094 C 144.5 272.757812 144.175781 272.492188 143.875 272.191406 C 143.578125 271.894531 143.308594 271.566406 143.074219 271.214844 C 142.839844 270.863281 142.640625 270.492188 142.480469 270.101562 C 142.316406 269.710938 142.195312 269.308594 142.113281 268.890625 C 142.03125 268.476562 141.988281 268.058594 141.988281 267.632812 C 141.988281 267.210938 142.03125 266.792969 142.113281 266.375 C 142.195312 265.960938 142.316406 265.558594 142.480469 265.167969 C 142.640625 264.777344 142.839844 264.40625 143.074219 264.054688 C 143.308594 263.699219 143.578125 263.375 143.875 263.074219 C 144.175781 262.777344 144.5 262.507812 144.851562 262.273438 C 145.203125 262.039062 145.574219 261.839844 145.96875 261.679688 C 146.359375 261.515625 146.761719 261.394531 147.175781 261.3125 C 147.589844 261.230469 148.011719 261.1875 148.433594 261.1875 C 148.855469 261.1875 149.273438 261.230469 149.691406 261.3125 C 150.105469 261.394531 150.507812 261.515625 150.898438 261.679688 C 151.289062 261.839844 151.660156 262.039062 152.011719 262.273438 C 152.363281 262.507812 152.691406 262.777344 152.988281 263.074219 C 153.289062 263.375 153.554688 263.699219 153.792969 264.054688 C 154.027344 264.40625 154.226562 264.777344 154.386719 265.167969 C 154.546875 265.558594 154.671875 265.960938 154.753906 266.375 C 154.835938 266.792969 154.878906 267.210938 154.878906 267.632812 Z M 154.878906 267.632812 " fill-opacity="1" fill-rule="nonzero"/><path fill="#3f395d" d="M 148.441406 275.613281 C 146.109375 275.613281 143.792969 274.597656 142.21875 272.644531 C 139.457031 269.214844 140 264.179688 143.425781 261.417969 C 146.851562 258.65625 151.886719 259.199219 154.644531 262.625 C 155.984375 264.285156 156.59375 266.367188 156.367188 268.488281 C 156.140625 270.605469 155.101562 272.511719 153.441406 273.847656 C 151.96875 275.035156 150.199219 275.613281 148.441406 275.613281 Z M 148.421875 262.722656 C 147.308594 262.722656 146.234375 263.101562 145.351562 263.8125 C 143.246094 265.511719 142.914062 268.605469 144.609375 270.714844 C 146.308594 272.824219 149.40625 273.15625 151.511719 271.457031 C 152.535156 270.632812 153.171875 269.464844 153.3125 268.160156 C 153.453125 266.855469 153.078125 265.574219 152.253906 264.554688 C 151.433594 263.53125 150.261719 262.890625 148.957031 262.753906 C 148.777344 262.734375 148.601562 262.722656 148.421875 262.722656 Z M 148.421875 262.722656 " fill-opacity="1" fill-rule="nonzero"/><path fill="#9dc6dc" d="M 69.621094 175.972656 L 53.21875 214.460938 C 50.382812 221.113281 53.621094 228.667969 60.222656 230.792969 L 93.457031 241.488281 C 100.503906 243.753906 108.226562 240.046875 111.25 232.945312 L 115.492188 222.992188 L 120.59375 211.023438 C 123.242188 204.8125 121.554688 197.671875 116.480469 193.625 L 87.945312 170.839844 C 81.867188 165.984375 72.792969 168.527344 69.621094 175.972656 Z M 69.621094 175.972656 " fill-opacity="1" fill-rule="nonzero"/><path fill="#3f395d" d="M 97.746094 243.699219 C 96.164062 243.699219 94.566406 243.457031 92.988281 242.949219 L 59.753906 232.257812 C 56.242188 231.125 53.453125 228.628906 51.898438 225.21875 C 50.277344 221.667969 50.242188 217.527344 51.804688 213.859375 L 68.207031 175.371094 C 69.960938 171.257812 73.390625 168.289062 77.621094 167.222656 C 81.609375 166.214844 85.722656 167.097656 88.902344 169.636719 L 117.441406 192.421875 C 123.042969 196.894531 124.917969 204.792969 122.003906 211.628906 L 112.664062 233.546875 C 109.976562 239.851562 104.035156 243.699219 97.746094 243.699219 Z M 80.863281 169.890625 C 80.035156 169.890625 79.199219 169.992188 78.371094 170.203125 C 75.078125 171.03125 72.40625 173.355469 71.035156 176.574219 L 54.632812 215.0625 C 53.40625 217.9375 53.429688 221.175781 54.691406 223.941406 C 55.882812 226.554688 58.015625 228.46875 60.691406 229.332031 L 93.929688 240.027344 C 100.261719 242.066406 107.105469 238.761719 109.839844 232.34375 L 119.179688 210.421875 C 121.554688 204.851562 120.050781 198.4375 115.523438 194.824219 L 86.988281 172.039062 C 85.222656 170.628906 83.074219 169.890625 80.863281 169.890625 Z M 80.863281 169.890625 " fill-opacity="1" fill-rule="nonzero"/><path fill="#9dc6dc" d="M 123.699219 222.414062 C 123.699219 223.179688 123.625 223.941406 123.472656 224.695312 C 123.324219 225.449219 123.101562 226.179688 122.808594 226.890625 C 122.515625 227.601562 122.152344 228.273438 121.726562 228.914062 C 121.300781 229.554688 120.816406 230.144531 120.273438 230.6875 C 119.730469 231.230469 119.136719 231.714844 118.5 232.144531 C 117.859375 232.570312 117.1875 232.929688 116.476562 233.222656 C 115.765625 233.519531 115.035156 233.742188 114.28125 233.890625 C 113.527344 234.039062 112.769531 234.117188 112 234.117188 C 111.230469 234.117188 110.472656 234.039062 109.71875 233.890625 C 108.964844 233.742188 108.234375 233.519531 107.523438 233.222656 C 106.8125 232.929688 106.140625 232.570312 105.5 232.144531 C 104.863281 231.714844 104.269531 231.230469 103.726562 230.6875 C 103.183594 230.144531 102.699219 229.554688 102.273438 228.914062 C 101.847656 228.273438 101.484375 227.601562 101.191406 226.890625 C 100.898438 226.179688 100.675781 225.449219 100.527344 224.695312 C 100.375 223.941406 100.300781 223.179688 100.300781 222.414062 C 100.300781 221.644531 100.375 220.882812 100.527344 220.128906 C 100.675781 219.375 100.898438 218.644531 101.191406 217.933594 C 101.484375 217.222656 101.847656 216.550781 102.273438 215.910156 C 102.699219 215.273438 103.183594 214.679688 103.726562 214.136719 C 104.269531 213.59375 104.863281 213.109375 105.5 212.683594 C 106.140625 212.253906 106.8125 211.894531 107.523438 211.601562 C 108.234375 211.308594 108.964844 211.085938 109.71875 210.933594 C 110.472656 210.785156 111.230469 210.710938 112 210.710938 C 112.769531 210.710938 113.527344 210.785156 114.28125 210.933594 C 115.035156 211.085938 115.765625 211.308594 116.476562 211.601562 C 117.1875 211.894531 117.859375 212.253906 118.5 212.683594 C 119.136719 213.109375 119.730469 213.59375 120.273438 214.136719 C 120.816406 214.679688 121.300781 215.273438 121.726562 215.910156 C 122.152344 216.550781 122.515625 217.222656 122.808594 217.933594 C 123.101562 218.644531 123.324219 219.375 123.472656 220.128906 C 123.625 220.882812 123.699219 221.644531 123.699219 222.414062 Z M 123.699219 222.414062 " fill-opacity="1" fill-rule="nonzero"/><path fill="#3f395d" d="M 112 235.652344 C 104.703125 235.652344 98.765625 229.710938 98.765625 222.414062 C 98.765625 215.113281 104.703125 209.171875 112 209.171875 C 119.296875 209.171875 125.234375 215.113281 125.234375 222.414062 C 125.234375 229.710938 119.296875 235.652344 112 235.652344 Z M 112 212.246094 C 106.394531 212.246094 101.835938 216.804688 101.835938 222.414062 C 101.835938 228.019531 106.394531 232.578125 112 232.578125 C 117.605469 232.578125 122.164062 228.019531 122.164062 222.414062 C 122.164062 216.804688 117.605469 212.246094 112 212.246094 Z M 112 212.246094 " fill-opacity="1" fill-rule="nonzero"/><path fill="#46446c" d="M 95.0625 237.109375 L 93.707031 243.125 C 91.914062 251.070312 84.023438 256.058594 76.082031 254.265625 C 68.136719 252.476562 63.152344 244.582031 64.941406 236.636719 L 65.386719 234.664062 C 65.890625 232.4375 68.101562 231.019531 70.324219 231.53125 C 72.515625 232.035156 74.703125 230.699219 75.265625 228.523438 L 93.808594 156.457031 L 112.300781 160.628906 Z M 74.097656 240.234375 C 72.960938 243.375 75.066406 246.707031 78.390625 247.027344 C 80.652344 247.246094 82.832031 245.867188 83.605469 243.726562 C 84.738281 240.585938 82.636719 237.257812 79.3125 236.9375 C 77.050781 236.71875 74.871094 238.09375 74.097656 240.234375 Z M 74.097656 240.234375 " fill-opacity="1" fill-rule="nonzero"/><path fill="#3f395d" d="M 79.355469 256.171875 C 78.15625 256.171875 76.945312 256.035156 75.742188 255.765625 C 71.503906 254.808594 67.886719 252.257812 65.5625 248.582031 C 63.242188 244.902344 62.488281 240.542969 63.445312 236.296875 L 63.886719 234.328125 C 64.222656 232.839844 65.121094 231.574219 66.410156 230.761719 C 67.6875 229.953125 69.199219 229.695312 70.667969 230.035156 C 72.054688 230.351562 73.421875 229.519531 73.777344 228.140625 L 92.691406 154.628906 L 114.136719 159.46875 L 95.203125 243.460938 C 94.246094 247.707031 91.695312 251.320312 88.019531 253.644531 C 85.386719 255.3125 82.398438 256.171875 79.355469 256.171875 Z M 69.410156 232.960938 C 68.933594 232.960938 68.460938 233.097656 68.046875 233.359375 C 67.453125 233.734375 67.039062 234.316406 66.886719 235.003906 L 66.441406 236.976562 C 65.664062 240.417969 66.273438 243.957031 68.160156 246.9375 C 70.042969 249.921875 72.976562 251.992188 76.417969 252.769531 C 83.523438 254.371094 90.605469 249.894531 92.207031 242.785156 L 110.464844 161.789062 L 94.921875 158.28125 L 76.75 228.90625 C 75.976562 231.910156 73.003906 233.722656 69.980469 233.027344 C 69.792969 232.984375 69.601562 232.960938 69.410156 232.960938 Z M 78.847656 248.585938 C 78.648438 248.585938 78.445312 248.574219 78.242188 248.554688 C 76.183594 248.355469 74.371094 247.246094 73.273438 245.507812 C 72.175781 243.769531 71.949219 241.65625 72.652344 239.710938 C 73.660156 236.933594 76.523438 235.121094 79.460938 235.40625 C 81.519531 235.605469 83.332031 236.71875 84.429688 238.453125 C 85.527344 240.191406 85.753906 242.304688 85.050781 244.25 C 84.113281 246.835938 81.570312 248.585938 78.847656 248.585938 Z M 75.542969 240.757812 C 75.164062 241.804688 75.28125 242.9375 75.871094 243.867188 C 76.457031 244.796875 77.429688 245.390625 78.539062 245.496094 C 80.097656 245.648438 81.625 244.683594 82.160156 243.203125 C 82.539062 242.15625 82.417969 241.023438 81.832031 240.097656 C 81.246094 239.167969 80.273438 238.574219 79.164062 238.464844 C 77.601562 238.3125 76.078125 239.277344 75.542969 240.757812 Z M 75.542969 240.757812 " fill-opacity="1" fill-rule="nonzero"/><path fill="#ffffff" d="M 136.222656 18.671875 C 143.550781 20.792969 147.699219 28.53125 145.402344 35.8125 L 132.171875 77.75 C 129.402344 86.527344 127.003906 95.417969 124.976562 104.394531 L 112.300781 160.628906 L 45.378906 145.53125 C 46.121094 99.472656 59.191406 42.972656 78.445312 1.964844 Z M 128.585938 30.1875 C 128 32.789062 129.632812 35.371094 132.234375 35.957031 C 134.832031 36.546875 137.414062 34.910156 138.003906 32.3125 C 138.589844 29.710938 136.957031 27.125 134.355469 26.539062 C 131.753906 25.953125 129.171875 27.585938 128.585938 30.1875 Z M 128.585938 30.1875 " fill-opacity="1" fill-rule="nonzero"/><g clip-path="url(#f8f59beca1)"><path fill="#3f395d" d="M 113.460938 162.464844 L 43.824219 146.757812 L 43.84375 145.507812 C 44.589844 99.289062 57.625 42.691406 77.054688 1.3125 L 77.609375 0.125 L 136.648438 17.195312 C 140.59375 18.335938 143.835938 20.960938 145.773438 24.582031 C 147.714844 28.203125 148.101562 32.355469 146.867188 36.273438 L 133.636719 78.210938 C 130.890625 86.914062 128.480469 95.839844 126.476562 104.734375 Z M 46.9375 144.308594 L 111.140625 158.792969 L 123.480469 104.058594 C 125.503906 95.078125 127.933594 86.074219 130.707031 77.289062 L 143.9375 35.347656 C 144.921875 32.226562 144.613281 28.917969 143.066406 26.03125 C 141.523438 23.148438 138.9375 21.058594 135.796875 20.148438 L 79.28125 3.804688 C 60.5 44.339844 47.878906 99.167969 46.9375 144.308594 Z M 133.292969 37.613281 C 132.832031 37.613281 132.363281 37.5625 131.894531 37.457031 C 130.238281 37.082031 128.824219 36.085938 127.917969 34.648438 C 127.007812 33.210938 126.714844 31.507812 127.089844 29.847656 C 127.460938 28.191406 128.460938 26.777344 129.894531 25.867188 C 131.332031 24.960938 133.035156 24.667969 134.695312 25.039062 C 138.117188 25.8125 140.273438 29.226562 139.5 32.648438 C 138.835938 35.601562 136.203125 37.613281 133.292969 37.613281 Z M 133.289062 27.957031 C 132.671875 27.957031 132.070312 28.128906 131.535156 28.464844 C 130.792969 28.933594 130.277344 29.667969 130.085938 30.523438 C 129.890625 31.382812 130.042969 32.265625 130.511719 33.007812 C 130.980469 33.75 131.710938 34.265625 132.570312 34.460938 C 133.429688 34.65625 134.308594 34.5 135.050781 34.03125 C 135.796875 33.5625 136.3125 32.832031 136.503906 31.972656 C 136.902344 30.203125 135.789062 28.4375 134.019531 28.035156 C 133.777344 27.980469 133.53125 27.957031 133.289062 27.957031 Z M 133.289062 27.957031 " fill-opacity="1" fill-rule="nonzero"/></g><path fill="#ffffff" d="M 59.257812 148.664062 L 45.378906 145.53125 C 46.121094 99.472656 59.191406 42.972656 78.445312 1.964844 L 91.960938 5.871094 C 73.316406 47.40625 60.625 102.578125 59.257812 148.664062 Z M 59.257812 148.664062 " fill-opacity="1" fill-rule="nonzero"/><g clip-path="url(#2a93d5b0be)"><path fill="#3f395d" d="M 60.738281 150.570312 L 43.824219 146.757812 L 43.84375 145.507812 C 44.589844 99.289062 57.625 42.691406 77.054688 1.3125 L 77.609375 0.125 L 94.085938 4.886719 L 93.359375 6.5 C 74.636719 48.21875 62.15625 102.707031 60.792969 148.707031 Z M 46.9375 144.308594 L 57.78125 146.753906 C 58.582031 124.558594 61.980469 99.867188 67.632812 75.21875 C 73.277344 50.601562 80.945312 27.007812 89.839844 6.859375 L 79.28125 3.804688 C 60.5 44.339844 47.878906 99.167969 46.9375 144.308594 Z M 46.9375 144.308594 " fill-opacity="1" fill-rule="nonzero"/></g><path fill="#9dc6dc" d="M 100.589844 193.023438 C 97.261719 188.5 98.226562 182.132812 102.746094 178.800781 L 113.101562 171.175781 C 117.609375 167.855469 123.949219 168.800781 127.289062 173.292969 C 130.648438 177.816406 129.695312 184.207031 125.160156 187.550781 L 114.804688 195.179688 C 110.285156 198.511719 103.921875 197.542969 100.589844 193.023438 Z M 100.589844 193.023438 " fill-opacity="1" fill-rule="nonzero"/><path fill="#3f395d" d="M 108.800781 198.699219 C 108.210938 198.699219 107.617188 198.65625 107.019531 198.5625 C 103.929688 198.09375 101.207031 196.449219 99.355469 193.933594 C 95.527344 188.734375 96.640625 181.394531 101.835938 177.566406 L 112.191406 169.9375 C 117.363281 166.128906 124.6875 167.222656 128.519531 172.375 C 130.390625 174.894531 131.167969 177.988281 130.703125 181.089844 C 130.242188 184.195312 128.59375 186.925781 126.070312 188.789062 L 115.714844 196.417969 C 113.683594 197.914062 111.277344 198.699219 108.800781 198.699219 Z M 119.117188 170.734375 C 117.339844 170.734375 115.546875 171.28125 114.011719 172.410156 L 103.65625 180.039062 C 99.828125 182.863281 99.003906 188.277344 101.828125 192.109375 C 104.648438 195.945312 110.0625 196.765625 113.894531 193.941406 L 124.25 186.3125 C 126.113281 184.941406 127.324219 182.925781 127.667969 180.636719 C 128.007812 178.347656 127.4375 176.066406 126.054688 174.210938 C 124.367188 171.9375 121.757812 170.734375 119.117188 170.734375 Z M 119.117188 170.734375 " fill-opacity="1" fill-rule="nonzero"/><path fill="#9dc6dc" d="M 48.753906 207.777344 C 46.742188 212.734375 49.125 218.386719 54.078125 220.398438 L 67.191406 225.730469 C 72.148438 227.746094 77.796875 225.359375 79.808594 220.402344 C 81.824219 215.449219 79.4375 209.796875 74.484375 207.78125 L 61.371094 202.453125 C 56.417969 200.4375 50.769531 202.824219 48.753906 207.777344 Z M 48.753906 207.777344 " fill-opacity="1" fill-rule="nonzero"/><path fill="#3f395d" d="M 70.839844 227.984375 C 69.410156 227.984375 67.980469 227.707031 66.613281 227.152344 L 53.5 221.824219 C 50.726562 220.695312 48.554688 218.550781 47.390625 215.789062 C 46.222656 213.027344 46.203125 209.976562 47.332031 207.199219 C 49.660156 201.46875 56.21875 198.699219 61.949219 201.027344 L 75.0625 206.359375 C 77.839844 207.488281 80.007812 209.632812 81.175781 212.394531 C 82.339844 215.15625 82.359375 218.203125 81.230469 220.980469 C 80.105469 223.757812 77.960938 225.929688 75.199219 227.097656 C 73.796875 227.6875 72.316406 227.984375 70.839844 227.984375 Z M 50.175781 208.355469 C 49.355469 210.375 49.371094 212.589844 50.21875 214.59375 C 51.066406 216.601562 52.640625 218.15625 54.65625 218.976562 L 67.769531 224.308594 C 69.785156 225.128906 72 225.113281 74.007812 224.265625 C 76.011719 223.417969 77.566406 221.84375 78.386719 219.824219 C 79.207031 217.808594 79.191406 215.59375 78.34375 213.585938 C 77.5 211.582031 75.921875 210.027344 73.90625 209.207031 L 60.792969 203.875 C 56.628906 202.183594 51.867188 204.195312 50.175781 208.355469 Z M 50.175781 208.355469 " fill-opacity="1" fill-rule="nonzero"/><path fill="#9dc6dc" d="M 56.046875 189.832031 C 54.03125 194.785156 56.417969 200.4375 61.371094 202.453125 L 74.484375 207.78125 C 79.4375 209.796875 85.085938 207.414062 87.101562 202.457031 C 89.113281 197.5 86.730469 191.847656 81.777344 189.835938 L 68.664062 184.503906 C 63.707031 182.488281 58.058594 184.875 56.046875 189.832031 Z M 56.046875 189.832031 " fill-opacity="1" fill-rule="nonzero"/><path fill="#3f395d" d="M 78.117188 210.03125 C 76.710938 210.03125 75.285156 209.765625 73.90625 209.207031 L 60.792969 203.875 C 58.015625 202.746094 55.847656 200.605469 54.679688 197.84375 C 53.515625 195.078125 53.496094 192.03125 54.625 189.253906 C 56.953125 183.519531 63.507812 180.75 69.242188 183.082031 L 82.355469 188.410156 C 88.085938 190.742188 90.851562 197.300781 88.523438 203.035156 C 86.753906 207.386719 82.546875 210.03125 78.117188 210.03125 Z M 65.027344 185.328125 C 61.808594 185.328125 58.753906 187.246094 57.46875 190.410156 C 56.648438 192.425781 56.664062 194.640625 57.511719 196.648438 C 58.355469 198.652344 59.933594 200.210938 61.949219 201.027344 L 75.0625 206.359375 C 79.222656 208.050781 83.988281 206.042969 85.679688 201.878906 C 87.371094 197.714844 85.359375 192.949219 81.199219 191.257812 L 68.085938 185.925781 C 67.082031 185.519531 66.046875 185.328125 65.027344 185.328125 Z M 65.027344 185.328125 " fill-opacity="1" fill-rule="nonzero"/><path fill="#9dc6dc" d="M 63.335938 171.882812 C 61.324219 176.839844 63.707031 182.488281 68.664062 184.503906 L 81.777344 189.835938 C 86.730469 191.847656 92.378906 189.464844 94.394531 184.507812 C 96.40625 179.550781 94.023438 173.902344 89.066406 171.886719 L 75.953125 166.554688 C 71 164.542969 65.351562 166.925781 63.335938 171.882812 Z M 63.335938 171.882812 " fill-opacity="1" fill-rule="nonzero"/><path fill="#3f395d" d="M 85.40625 192.082031 C 84.003906 192.082031 82.578125 191.820312 81.199219 191.257812 L 68.085938 185.925781 C 65.308594 184.796875 63.136719 182.65625 61.972656 179.894531 C 60.808594 177.132812 60.785156 174.082031 61.914062 171.304688 C 63.042969 168.527344 65.183594 166.355469 67.945312 165.191406 C 70.707031 164.023438 73.757812 164.003906 76.535156 165.132812 L 89.644531 170.464844 C 95.375 172.792969 98.144531 179.351562 95.816406 185.085938 C 94.046875 189.4375 89.839844 192.082031 85.40625 192.082031 Z M 72.308594 167.375 C 71.234375 167.375 70.160156 167.589844 69.140625 168.019531 C 67.136719 168.867188 65.578125 170.445312 64.761719 172.460938 C 63.941406 174.476562 63.957031 176.695312 64.800781 178.699219 C 65.648438 180.703125 67.226562 182.261719 69.242188 183.082031 L 82.355469 188.410156 C 86.515625 190.105469 91.277344 188.09375 92.96875 183.929688 C 94.660156 179.765625 92.652344 175.003906 88.488281 173.308594 L 75.375 167.980469 C 74.386719 167.574219 73.347656 167.375 72.308594 167.375 Z M 72.308594 167.375 " fill-opacity="1" fill-rule="nonzero"/><path fill="#9dc6dc" d="M 260.371094 337.417969 C 261.75 335.933594 264.074219 335.847656 265.558594 337.230469 L 275.632812 346.59375 L 270.671875 352.007812 L 260.5625 342.609375 C 259.078125 341.230469 258.992188 338.90625 260.371094 337.417969 Z M 260.371094 337.417969 " fill-opacity="1" fill-rule="nonzero"/><path fill="#3f395d" d="M 270.761719 354.1875 L 259.515625 343.734375 C 258.496094 342.789062 257.910156 341.5 257.855469 340.109375 C 257.804688 338.71875 258.300781 337.394531 259.246094 336.375 C 260.191406 335.355469 261.480469 334.765625 262.871094 334.714844 C 264.257812 334.660156 265.585938 335.15625 266.605469 336.101562 L 277.796875 346.507812 Z M 263.0625 337.785156 C 262.488281 337.785156 261.917969 338.011719 261.496094 338.464844 C 260.695312 339.328125 260.746094 340.683594 261.605469 341.484375 L 270.585938 349.828125 L 273.472656 346.679688 L 264.515625 338.355469 C 264.105469 337.972656 263.582031 337.785156 263.0625 337.785156 Z M 263.0625 337.785156 " fill-opacity="1" fill-rule="nonzero"/><path fill="#9dc6dc" d="M 300.539062 319.15625 C 302.363281 317.816406 302.808594 315.277344 301.550781 313.398438 L 285.871094 290.007812 C 284.535156 288.015625 281.808594 287.535156 279.875 288.953125 L 278.933594 289.640625 L 278.003906 290.320312 C 276.066406 291.738281 275.703125 294.484375 277.195312 296.359375 L 294.746094 318.378906 C 296.15625 320.152344 298.710938 320.492188 300.539062 319.15625 Z M 300.539062 319.15625 " fill-opacity="1" fill-rule="nonzero"/><path fill="#3f395d" d="M 298.042969 321.511719 C 296.351562 321.511719 294.679688 320.765625 293.542969 319.335938 L 275.996094 297.316406 C 275.007812 296.078125 274.582031 294.535156 274.792969 292.964844 C 275 291.398438 275.820312 290.015625 277.097656 289.082031 L 278.96875 287.714844 C 280.246094 286.777344 281.804688 286.414062 283.363281 286.6875 C 284.921875 286.960938 286.265625 287.839844 287.148438 289.152344 L 302.824219 312.542969 C 304.550781 315.117188 303.945312 318.566406 301.445312 320.394531 C 300.417969 321.148438 299.222656 321.511719 298.042969 321.511719 Z M 282.359375 289.671875 C 281.792969 289.671875 281.246094 289.851562 280.78125 290.191406 L 278.910156 291.5625 C 278.316406 291.996094 277.933594 292.640625 277.835938 293.371094 C 277.738281 294.105469 277.9375 294.824219 278.398438 295.402344 L 295.945312 317.421875 C 296.847656 318.550781 298.464844 318.769531 299.628906 317.914062 C 300.796875 317.0625 301.078125 315.453125 300.273438 314.253906 L 284.597656 290.863281 C 284.183594 290.25 283.558594 289.84375 282.832031 289.714844 C 282.671875 289.6875 282.515625 289.671875 282.359375 289.671875 Z M 282.359375 289.671875 " fill-opacity="1" fill-rule="nonzero"/><path fill="#9dc6dc" d="M 264.765625 274.414062 C 260.164062 271.25 254.433594 269.523438 248.527344 269.523438 L 196.097656 269.523438 C 190.191406 269.523438 184.460938 271.25 179.859375 274.414062 C 173.746094 278.617188 170.1875 284.964844 170.1875 291.675781 L 170.1875 295.863281 C 170.1875 317.078125 182.554688 356.59375 203.164062 368.40625 C 208.945312 371.722656 215.640625 373.332031 222.3125 373.242188 C 228.988281 373.332031 235.679688 371.722656 241.460938 368.40625 C 262.074219 356.59375 274.441406 317.078125 274.441406 295.863281 L 274.441406 291.675781 C 274.441406 284.964844 270.882812 278.617188 264.765625 274.414062 Z M 264.765625 274.414062 " fill-opacity="1" fill-rule="nonzero"/><path fill="#3f395d" d="M 221.773438 374.78125 C 214.851562 374.78125 208.164062 373.042969 202.402344 369.742188 C 192.894531 364.292969 184.0625 352.394531 177.523438 336.238281 C 172.050781 322.710938 168.652344 307.242188 168.652344 295.863281 L 168.652344 291.671875 C 168.652344 284.417969 172.417969 277.664062 178.992188 273.148438 C 183.828125 269.820312 189.90625 267.988281 196.097656 267.988281 L 248.527344 267.988281 C 254.722656 267.988281 260.796875 269.820312 265.636719 273.148438 C 272.207031 277.664062 275.976562 284.417969 275.976562 291.671875 L 275.976562 295.863281 C 275.976562 307.242188 272.574219 322.710938 267.101562 336.238281 C 260.566406 352.394531 251.730469 364.292969 242.226562 369.742188 C 236.3125 373.128906 229.425781 374.867188 222.3125 374.777344 C 222.132812 374.78125 221.953125 374.78125 221.773438 374.78125 Z M 222.3125 371.707031 L 222.332031 371.707031 C 228.925781 371.796875 235.257812 370.195312 240.699219 367.074219 C 260.359375 355.804688 272.902344 317.371094 272.902344 295.863281 L 272.902344 291.671875 C 272.902344 285.445312 269.621094 279.613281 263.898438 275.679688 C 259.5625 272.699219 254.105469 271.058594 248.527344 271.058594 L 196.097656 271.058594 C 190.519531 271.058594 185.0625 272.699219 180.730469 275.679688 C 175.003906 279.613281 171.722656 285.445312 171.722656 291.671875 L 171.722656 295.863281 C 171.722656 317.371094 184.269531 355.804688 203.925781 367.074219 C 209.367188 370.195312 215.714844 371.800781 222.292969 371.707031 Z M 222.3125 371.707031 " fill-opacity="1" fill-rule="nonzero"/><path fill="#46446c" d="M 274.441406 295.863281 L 274.441406 291.671875 C 274.441406 284.964844 270.882812 278.617188 264.765625 274.414062 C 263.65625 273.652344 262.484375 272.972656 261.257812 272.382812 L 260.167969 272.820312 C 260.167969 272.820312 244.703125 281.734375 243.582031 288.777344 C 239.296875 315.675781 260.164062 347.292969 260.167969 347.300781 C 269.316406 330.75 274.441406 309.515625 274.441406 295.863281 Z M 274.441406 295.863281 " fill-opacity="1" fill-rule="nonzero"/><path fill="#3f395d" d="M 260.285156 350.269531 L 258.886719 348.144531 C 258.019531 346.828125 237.75 315.621094 242.066406 288.535156 C 243.269531 280.988281 257.753906 272.441406 259.402344 271.492188 L 259.597656 271.398438 L 261.3125 270.703125 L 261.921875 271 C 263.234375 271.632812 264.484375 272.355469 265.636719 273.148438 C 272.207031 277.664062 275.976562 284.417969 275.976562 291.671875 L 275.976562 295.863281 C 275.976562 308.390625 271.449219 330.0625 261.511719 348.046875 Z M 260.84375 274.207031 C 256.652344 276.640625 245.917969 283.878906 245.097656 289.019531 C 242.945312 302.523438 247.46875 317.355469 251.636719 327.421875 C 254.808594 335.074219 258.21875 341.144531 260.070312 344.230469 C 268.878906 327.222656 272.90625 307.476562 272.90625 295.863281 L 272.90625 291.671875 C 272.90625 285.445312 269.621094 279.613281 263.898438 275.679688 C 263.050781 275.09375 262.140625 274.554688 261.191406 274.066406 Z M 260.84375 274.207031 " fill-opacity="1" fill-rule="nonzero"/><path fill="#46446c" d="M 170.1875 295.863281 L 170.1875 291.671875 C 170.1875 284.964844 173.746094 278.617188 179.859375 274.414062 C 180.96875 273.652344 182.144531 272.972656 183.371094 272.382812 L 184.457031 272.820312 C 184.457031 272.820312 199.921875 281.734375 201.042969 288.777344 C 205.332031 315.675781 184.464844 347.292969 184.457031 347.300781 C 175.3125 330.75 170.1875 309.515625 170.1875 295.863281 Z M 170.1875 295.863281 " fill-opacity="1" fill-rule="nonzero"/><path fill="#3f395d" d="M 184.335938 350.253906 L 183.113281 348.046875 C 173.175781 330.0625 168.652344 308.390625 168.652344 295.863281 L 168.652344 291.671875 C 168.652344 284.417969 172.421875 277.664062 178.992188 273.148438 C 180.144531 272.351562 181.394531 271.628906 182.703125 271 L 183.316406 270.703125 L 185.222656 271.492188 C 186.871094 272.441406 201.359375 280.988281 202.5625 288.535156 C 206.929688 315.957031 185.949219 347.835938 185.734375 348.152344 Z M 183.4375 274.066406 C 182.488281 274.554688 181.578125 275.09375 180.730469 275.679688 C 175.003906 279.613281 171.722656 285.445312 171.722656 291.671875 L 171.722656 295.863281 C 171.722656 307.472656 175.75 327.214844 184.550781 344.222656 C 189.082031 336.621094 203.027344 310.988281 199.527344 289.019531 C 198.707031 283.878906 187.976562 276.640625 183.78125 274.207031 Z M 183.4375 274.066406 " fill-opacity="1" fill-rule="nonzero"/><path fill="#41e9ec" d="M 238.363281 321.386719 L 206.265625 321.386719 C 199.148438 321.386719 193.375 315.613281 193.375 308.496094 C 193.375 301.375 199.148438 295.605469 206.265625 295.605469 L 238.363281 295.605469 C 245.480469 295.605469 251.25 301.375 251.25 308.496094 C 251.25 315.613281 245.480469 321.386719 238.363281 321.386719 Z M 238.363281 321.386719 " fill-opacity="1" fill-rule="nonzero"/><path fill="#3f395d" d="M 238.363281 322.921875 L 206.265625 322.921875 C 198.3125 322.921875 191.839844 316.449219 191.839844 308.496094 C 191.839844 300.539062 198.3125 294.066406 206.265625 294.066406 L 238.363281 294.066406 C 246.316406 294.066406 252.785156 300.539062 252.785156 308.496094 C 252.785156 316.449219 246.316406 322.921875 238.363281 322.921875 Z M 206.265625 297.140625 C 200.003906 297.140625 194.914062 302.234375 194.914062 308.496094 C 194.914062 314.757812 200.003906 319.851562 206.265625 319.851562 L 238.363281 319.851562 C 244.621094 319.851562 249.714844 314.757812 249.714844 308.496094 C 249.714844 302.234375 244.621094 297.140625 238.363281 297.140625 Z M 206.265625 297.140625 " fill-opacity="1" fill-rule="nonzero"/><path fill="#9dc6dc" d="M 187.90625 353.011719 C 192.289062 359.636719 197.402344 365.105469 203.164062 368.40625 C 208.945312 371.722656 215.640625 373.332031 222.3125 373.242188 C 228.988281 373.332031 235.679688 371.722656 241.460938 368.40625 C 247.222656 365.105469 252.339844 359.636719 256.722656 353.011719 C 233.78125 361.398438 210.84375 361.398438 187.90625 353.011719 Z M 187.90625 353.011719 " fill-opacity="1" fill-rule="nonzero"/><path fill="#3f395d" d="M 222.851562 374.78125 C 222.671875 374.78125 222.492188 374.78125 222.3125 374.777344 C 215.214844 374.867188 208.3125 373.128906 202.402344 369.742188 C 196.765625 366.511719 191.457031 361.167969 186.625 353.859375 L 184.050781 349.96875 L 188.433594 351.570312 C 210.914062 359.789062 233.714844 359.789062 256.195312 351.570312 L 260.578125 349.96875 L 258.003906 353.859375 C 253.167969 361.167969 247.859375 366.511719 242.226562 369.742188 C 236.464844 373.042969 229.777344 374.78125 222.851562 374.78125 Z M 222.3125 371.707031 L 222.332031 371.707031 C 228.925781 371.796875 235.257812 370.195312 240.699219 367.074219 C 244.894531 364.671875 248.921875 360.957031 252.714844 356.003906 C 232.519531 362.414062 212.109375 362.414062 191.914062 356.003906 C 195.703125 360.957031 199.734375 364.671875 203.925781 367.074219 C 209.367188 370.195312 215.714844 371.800781 222.292969 371.707031 Z M 222.3125 371.707031 " fill-opacity="1" fill-rule="nonzero"/><path fill="#9dc6dc" d="M 285.882812 289.640625 C 285.882812 296.589844 280.757812 302.226562 274.441406 302.226562 C 268.121094 302.226562 267.089844 296.589844 267.089844 289.640625 C 267.089844 282.691406 268.121094 277.058594 274.441406 277.058594 C 280.757812 277.054688 285.882812 282.691406 285.882812 289.640625 Z M 285.882812 289.640625 " fill-opacity="1" fill-rule="nonzero"/><path fill="#3f395d" d="M 274.441406 303.761719 C 265.550781 303.761719 265.550781 294.222656 265.550781 289.640625 C 265.550781 285.058594 265.550781 275.519531 274.441406 275.519531 C 281.597656 275.519531 287.417969 281.855469 287.417969 289.640625 C 287.417969 297.425781 281.597656 303.761719 274.441406 303.761719 Z M 274.441406 278.59375 C 270.199219 278.59375 268.625 281.585938 268.625 289.640625 C 268.625 297.695312 270.199219 300.6875 274.441406 300.6875 C 279.902344 300.6875 284.347656 295.734375 284.347656 289.640625 C 284.347656 283.546875 279.902344 278.59375 274.441406 278.59375 Z M 274.441406 278.59375 " fill-opacity="1" fill-rule="nonzero"/><path fill="#9dc6dc" d="M 287.75 356.441406 L 285.363281 355.453125 L 282.972656 354.460938 C 278.941406 352.792969 277.246094 347.996094 279.324219 344.160156 L 291.167969 322.316406 C 292.960938 319.007812 296.964844 317.589844 300.445312 319.03125 C 303.921875 320.472656 305.75 324.308594 304.679688 327.917969 L 297.613281 351.738281 C 296.371094 355.921875 291.78125 358.109375 287.75 356.441406 Z M 287.75 356.441406 " fill-opacity="1" fill-rule="nonzero"/><path fill="#3f395d" d="M 290.5625 358.535156 C 289.40625 358.535156 288.25 358.308594 287.160156 357.859375 L 282.386719 355.882812 C 280.0625 354.917969 278.25 353.007812 277.410156 350.636719 C 276.570312 348.265625 276.777344 345.636719 277.976562 343.425781 L 289.816406 321.585938 C 291.992188 317.570312 296.816406 315.863281 301.03125 317.609375 C 305.25 319.359375 307.449219 323.976562 306.152344 328.355469 L 299.085938 352.175781 C 298.367188 354.585938 296.65625 356.589844 294.386719 357.671875 C 293.179688 358.246094 291.871094 358.535156 290.5625 358.535156 Z M 297.625 320 C 295.550781 320 293.5625 321.117188 292.515625 323.050781 L 280.675781 344.890625 C 279.890625 346.339844 279.753906 348.058594 280.304688 349.609375 C 280.855469 351.160156 282.042969 352.414062 283.5625 353.042969 L 288.335938 355.019531 C 289.855469 355.652344 291.582031 355.605469 293.066406 354.898438 C 294.550781 354.191406 295.671875 352.878906 296.140625 351.300781 L 303.207031 327.480469 C 304.058594 324.617188 302.617188 321.59375 299.855469 320.449219 C 299.128906 320.144531 298.371094 320 297.625 320 Z M 297.625 320 " fill-opacity="1" fill-rule="nonzero"/><path fill="#9dc6dc" d="M 304.820312 319.03125 C 304.820312 319.316406 304.792969 319.601562 304.734375 319.882812 C 304.679688 320.164062 304.597656 320.4375 304.484375 320.703125 C 304.375 320.96875 304.242188 321.222656 304.082031 321.460938 C 303.921875 321.699219 303.742188 321.921875 303.539062 322.125 C 303.335938 322.328125 303.113281 322.507812 302.875 322.667969 C 302.636719 322.828125 302.382812 322.960938 302.117188 323.070312 C 301.855469 323.183594 301.578125 323.265625 301.296875 323.320312 C 301.015625 323.375 300.730469 323.40625 300.445312 323.40625 C 300.15625 323.40625 299.875 323.378906 299.589844 323.320312 C 299.308594 323.265625 299.035156 323.183594 298.769531 323.070312 C 298.503906 322.960938 298.253906 322.828125 298.015625 322.667969 C 297.777344 322.507812 297.554688 322.328125 297.351562 322.125 C 297.148438 321.921875 296.96875 321.699219 296.808594 321.460938 C 296.648438 321.222656 296.511719 320.96875 296.402344 320.703125 C 296.292969 320.4375 296.210938 320.164062 296.15625 319.882812 C 296.097656 319.601562 296.070312 319.316406 296.070312 319.03125 C 296.070312 318.742188 296.097656 318.457031 296.15625 318.175781 C 296.210938 317.894531 296.292969 317.621094 296.402344 317.355469 C 296.511719 317.089844 296.648438 316.835938 296.808594 316.597656 C 296.96875 316.359375 297.148438 316.136719 297.351562 315.933594 C 297.554688 315.730469 297.777344 315.550781 298.015625 315.390625 C 298.253906 315.230469 298.503906 315.097656 298.769531 314.988281 C 299.035156 314.875 299.308594 314.792969 299.589844 314.738281 C 299.875 314.683594 300.15625 314.652344 300.445312 314.652344 C 300.730469 314.652344 301.015625 314.683594 301.296875 314.738281 C 301.578125 314.792969 301.855469 314.875 302.117188 314.988281 C 302.382812 315.097656 302.636719 315.230469 302.875 315.390625 C 303.113281 315.550781 303.335938 315.730469 303.539062 315.933594 C 303.742188 316.136719 303.921875 316.359375 304.082031 316.597656 C 304.242188 316.835938 304.375 317.089844 304.484375 317.355469 C 304.597656 317.621094 304.679688 317.894531 304.734375 318.175781 C 304.792969 318.457031 304.820312 318.742188 304.820312 319.03125 Z M 304.820312 319.03125 " fill-opacity="1" fill-rule="nonzero"/><path fill="#3f395d" d="M 300.445312 324.945312 C 299.679688 324.945312 298.914062 324.792969 298.183594 324.492188 C 295.171875 323.242188 293.738281 319.777344 294.984375 316.765625 C 296.230469 313.753906 299.695312 312.320312 302.707031 313.566406 C 305.71875 314.816406 307.152344 318.28125 305.90625 321.292969 C 305.300781 322.75 304.164062 323.886719 302.707031 324.492188 C 301.976562 324.792969 301.210938 324.945312 300.445312 324.945312 Z M 300.449219 316.191406 C 299.335938 316.191406 298.273438 316.851562 297.824219 317.941406 C 297.222656 319.390625 297.914062 321.054688 299.359375 321.652344 C 300.058594 321.941406 300.832031 321.941406 301.53125 321.652344 C 302.230469 321.363281 302.777344 320.816406 303.066406 320.117188 C 303.667969 318.667969 302.976562 317.003906 301.53125 316.40625 C 301.175781 316.257812 300.808594 316.191406 300.449219 316.191406 Z M 300.449219 316.191406 " fill-opacity="1" fill-rule="nonzero"/><path fill="#9dc6dc" d="M 247.988281 351.5625 C 247.90625 349.632812 249.40625 348.003906 251.335938 347.925781 L 264.910156 347.363281 C 266.839844 347.28125 268.46875 348.78125 268.546875 350.714844 C 268.625 352.644531 267.128906 354.273438 265.199219 354.351562 L 251.625 354.914062 C 249.695312 354.992188 248.066406 353.492188 247.988281 351.5625 Z M 247.988281 351.5625 " fill-opacity="1" fill-rule="nonzero"/><path fill="#3f395d" d="M 251.480469 356.453125 C 248.800781 356.453125 246.566406 354.328125 246.453125 351.628906 L 246.453125 351.625 C 246.339844 348.855469 248.503906 346.503906 251.273438 346.390625 L 264.84375 345.828125 C 266.183594 345.777344 267.472656 346.242188 268.460938 347.152344 C 269.449219 348.066406 270.027344 349.304688 270.082031 350.648438 C 270.195312 353.421875 268.03125 355.773438 265.261719 355.886719 L 251.691406 356.449219 C 251.621094 356.453125 251.550781 356.453125 251.480469 356.453125 Z M 249.523438 351.5 C 249.566406 352.582031 250.492188 353.425781 251.5625 353.378906 L 265.132812 352.816406 C 266.214844 352.773438 267.058594 351.859375 267.011719 350.777344 C 266.992188 350.253906 266.765625 349.769531 266.382812 349.414062 C 265.996094 349.058594 265.492188 348.875 264.972656 348.898438 L 251.402344 349.457031 C 250.320312 349.503906 249.476562 350.417969 249.523438 351.5 Z M 249.523438 351.5 " fill-opacity="1" fill-rule="nonzero"/><path fill="#9dc6dc" d="M 248.277344 358.554688 C 248.195312 356.625 249.695312 354.992188 251.625 354.914062 L 265.199219 354.351562 C 267.128906 354.273438 268.757812 355.773438 268.835938 357.703125 C 268.914062 359.632812 267.417969 361.261719 265.488281 361.34375 L 251.914062 361.902344 C 249.984375 361.984375 248.355469 360.484375 248.277344 358.554688 Z M 248.277344 358.554688 " fill-opacity="1" fill-rule="nonzero"/><path fill="#3f395d" d="M 251.769531 363.445312 C 249.089844 363.445312 246.855469 361.320312 246.742188 358.617188 C 246.6875 357.273438 247.15625 355.988281 248.070312 355 C 248.980469 354.011719 250.21875 353.433594 251.5625 353.378906 L 265.132812 352.816406 C 265.203125 352.816406 265.273438 352.8125 265.34375 352.8125 C 268.023438 352.8125 270.257812 354.9375 270.371094 357.640625 C 270.484375 360.414062 268.320312 362.761719 265.550781 362.878906 L 251.980469 363.4375 C 251.910156 363.441406 251.839844 363.445312 251.769531 363.445312 Z M 249.8125 358.492188 C 249.855469 359.570312 250.773438 360.414062 251.851562 360.371094 L 265.421875 359.808594 C 266.503906 359.761719 267.347656 358.847656 267.300781 357.765625 C 267.257812 356.714844 266.386719 355.886719 265.34375 355.886719 C 265.316406 355.886719 265.289062 355.886719 265.261719 355.886719 L 251.691406 356.449219 C 251.167969 356.46875 250.683594 356.695312 250.328125 357.082031 C 249.972656 357.464844 249.789062 357.964844 249.8125 358.492188 Z M 249.8125 358.492188 " fill-opacity="1" fill-rule="nonzero"/><path fill="#9dc6dc" d="M 248.566406 365.542969 C 248.484375 363.613281 249.984375 361.984375 251.914062 361.90625 L 265.484375 361.34375 C 267.414062 361.261719 269.042969 362.761719 269.125 364.695312 C 269.203125 366.625 267.703125 368.253906 265.773438 368.332031 L 252.203125 368.894531 C 250.273438 368.972656 248.644531 367.472656 248.566406 365.542969 Z M 248.566406 365.542969 " fill-opacity="1" fill-rule="nonzero"/><path fill="#3f395d" d="M 252.054688 370.433594 C 250.789062 370.433594 249.585938 369.964844 248.652344 369.101562 C 247.664062 368.191406 247.085938 366.949219 247.03125 365.609375 C 246.976562 364.265625 247.445312 362.980469 248.355469 361.988281 C 249.265625 361 250.507812 360.425781 251.851562 360.371094 L 265.421875 359.808594 C 266.765625 359.757812 268.050781 360.222656 269.039062 361.132812 C 270.027344 362.046875 270.601562 363.285156 270.660156 364.628906 C 270.714844 365.972656 270.242188 367.257812 269.332031 368.246094 C 268.421875 369.238281 267.179688 369.8125 265.839844 369.867188 L 252.265625 370.429688 C 252.195312 370.433594 252.125 370.433594 252.054688 370.433594 Z M 265.632812 362.875 C 265.605469 362.875 265.578125 362.875 265.550781 362.878906 L 251.980469 363.4375 C 251.457031 363.460938 250.972656 363.683594 250.617188 364.070312 C 250.261719 364.457031 250.078125 364.957031 250.101562 365.480469 C 250.121094 366.003906 250.347656 366.488281 250.730469 366.84375 C 251.117188 367.199219 251.617188 367.386719 252.140625 367.359375 L 265.710938 366.796875 C 266.234375 366.777344 266.71875 366.554688 267.074219 366.167969 C 267.429688 365.78125 267.613281 365.28125 267.589844 364.757812 C 267.546875 363.703125 266.675781 362.875 265.632812 362.875 Z M 265.632812 362.875 " fill-opacity="1" fill-rule="nonzero"/><path fill="#9dc6dc" d="M 262.914062 365.507812 L 262.289062 350.410156 C 262.183594 347.800781 264.335938 345.660156 266.945312 345.78125 L 280.078125 346.394531 C 282.863281 346.527344 285.085938 348.761719 285.199219 351.546875 L 285.363281 355.449219 L 285.554688 360.144531 C 285.65625 362.582031 284.105469 364.78125 281.777344 365.503906 L 268.679688 369.574219 C 265.890625 370.441406 263.035156 368.429688 262.914062 365.507812 Z M 262.914062 365.507812 " fill-opacity="1" fill-rule="nonzero"/><path fill="#3f395d" d="M 267.347656 371.316406 C 266.132812 371.316406 264.9375 370.941406 263.910156 370.21875 C 262.378906 369.136719 261.457031 367.445312 261.378906 365.570312 L 260.757812 350.476562 C 260.6875 348.800781 261.328125 347.164062 262.515625 345.984375 C 263.703125 344.804688 265.34375 344.167969 267.015625 344.246094 L 280.148438 344.863281 C 283.753906 345.03125 286.585938 347.875 286.734375 351.484375 L 287.089844 360.082031 C 287.21875 363.210938 285.222656 366.042969 282.234375 366.972656 L 269.136719 371.042969 C 268.546875 371.226562 267.945312 371.316406 267.347656 371.316406 Z M 264.449219 365.445312 C 264.484375 366.355469 264.933594 367.179688 265.679688 367.707031 C 266.425781 368.234375 267.355469 368.378906 268.222656 368.109375 L 281.324219 364.035156 C 282.984375 363.519531 284.09375 361.945312 284.019531 360.207031 L 283.664062 351.609375 C 283.582031 349.605469 282.011719 348.023438 280.007812 347.929688 L 266.871094 347.316406 C 266.046875 347.277344 265.265625 347.578125 264.679688 348.160156 C 264.09375 348.746094 263.789062 349.523438 263.824219 350.347656 Z M 264.449219 365.445312 " fill-opacity="1" fill-rule="nonzero"/><path fill="#9dc6dc" d="M 289.734375 355.449219 C 289.734375 355.738281 289.707031 356.023438 289.652344 356.304688 C 289.59375 356.585938 289.511719 356.859375 289.402344 357.125 C 289.292969 357.390625 289.15625 357.644531 289 357.882812 C 288.839844 358.121094 288.65625 358.34375 288.453125 358.546875 C 288.25 358.75 288.03125 358.929688 287.792969 359.089844 C 287.550781 359.25 287.300781 359.382812 287.035156 359.492188 C 286.769531 359.601562 286.496094 359.6875 286.214844 359.742188 C 285.933594 359.796875 285.648438 359.828125 285.363281 359.828125 C 285.074219 359.828125 284.789062 359.796875 284.507812 359.742188 C 284.226562 359.6875 283.953125 359.601562 283.6875 359.492188 C 283.421875 359.382812 283.171875 359.25 282.929688 359.089844 C 282.691406 358.929688 282.472656 358.75 282.269531 358.546875 C 282.066406 358.34375 281.882812 358.121094 281.722656 357.882812 C 281.566406 357.644531 281.429688 357.390625 281.320312 357.125 C 281.210938 356.859375 281.128906 356.585938 281.070312 356.304688 C 281.015625 356.023438 280.988281 355.738281 280.988281 355.449219 C 280.988281 355.164062 281.015625 354.878906 281.070312 354.597656 C 281.128906 354.316406 281.210938 354.042969 281.320312 353.777344 C 281.429688 353.511719 281.566406 353.257812 281.722656 353.019531 C 281.882812 352.78125 282.066406 352.558594 282.269531 352.355469 C 282.472656 352.152344 282.691406 351.972656 282.929688 351.8125 C 283.171875 351.652344 283.421875 351.519531 283.6875 351.410156 C 283.953125 351.296875 284.226562 351.214844 284.507812 351.160156 C 284.789062 351.101562 285.074219 351.074219 285.363281 351.074219 C 285.648438 351.074219 285.933594 351.101562 286.214844 351.160156 C 286.496094 351.214844 286.769531 351.296875 287.035156 351.410156 C 287.300781 351.519531 287.550781 351.652344 287.792969 351.8125 C 288.03125 351.972656 288.25 352.152344 288.453125 352.355469 C 288.65625 352.558594 288.839844 352.78125 289 353.019531 C 289.15625 353.257812 289.292969 353.511719 289.402344 353.777344 C 289.511719 354.042969 289.59375 354.316406 289.652344 354.597656 C 289.707031 354.878906 289.734375 355.164062 289.734375 355.449219 Z M 289.734375 355.449219 " fill-opacity="1" fill-rule="nonzero"/><path fill="#3f395d" d="M 285.359375 361.363281 C 282.210938 361.363281 279.589844 358.871094 279.457031 355.695312 C 279.390625 354.117188 279.945312 352.609375 281.011719 351.445312 C 282.082031 350.285156 283.539062 349.609375 285.117188 349.542969 C 288.378906 349.414062 291.132812 351.949219 291.265625 355.207031 C 291.398438 358.464844 288.859375 361.222656 285.605469 361.359375 C 285.523438 361.363281 285.441406 361.363281 285.359375 361.363281 Z M 285.363281 352.613281 C 285.324219 352.613281 285.285156 352.613281 285.246094 352.613281 C 284.484375 352.644531 283.785156 352.96875 283.273438 353.527344 C 282.757812 354.085938 282.492188 354.808594 282.523438 355.566406 C 282.589844 357.132812 283.921875 358.351562 285.480469 358.289062 C 287.042969 358.222656 288.261719 356.898438 288.199219 355.332031 C 288.132812 353.808594 286.875 352.613281 285.363281 352.613281 Z M 285.363281 352.613281 " fill-opacity="1" fill-rule="nonzero"/><path fill="#46446c" d="M 277.339844 258.667969 L 269.503906 256.097656 L 278.539062 228.535156 L 286.375 231.105469 C 289.734375 232.207031 291.566406 235.824219 290.464844 239.1875 L 285.417969 254.578125 C 284.316406 257.941406 280.699219 259.773438 277.339844 258.667969 Z M 277.339844 258.667969 " fill-opacity="1" fill-rule="nonzero"/><path fill="#3f395d" d="M 279.328125 260.523438 C 278.511719 260.523438 277.679688 260.398438 276.863281 260.128906 L 267.566406 257.078125 L 277.558594 226.597656 L 286.855469 229.644531 C 288.867188 230.304688 290.507812 231.710938 291.464844 233.605469 C 292.421875 235.496094 292.585938 237.648438 291.921875 239.664062 L 286.878906 255.058594 C 285.78125 258.398438 282.667969 260.523438 279.328125 260.523438 Z M 277.820312 257.210938 C 280.367188 258.046875 283.125 256.652344 283.960938 254.101562 L 289.003906 238.707031 C 289.410156 237.472656 289.308594 236.152344 288.722656 234.992188 C 288.136719 233.832031 287.132812 232.96875 285.898438 232.566406 L 279.519531 230.472656 L 271.441406 255.117188 Z M 277.820312 257.210938 " fill-opacity="1" fill-rule="nonzero"/><path fill="#46446c" d="M 166.226562 222.222656 L 174.0625 224.792969 L 183.097656 197.230469 L 175.261719 194.660156 C 171.902344 193.558594 168.285156 195.390625 167.183594 198.75 L 162.136719 214.144531 C 161.035156 217.503906 162.867188 221.121094 166.226562 222.222656 Z M 166.226562 222.222656 " fill-opacity="1" fill-rule="nonzero"/><path fill="#3f395d" d="M 175.042969 226.734375 L 165.746094 223.683594 C 161.589844 222.320312 159.3125 217.824219 160.679688 213.664062 L 165.722656 198.269531 C 166.382812 196.253906 167.789062 194.617188 169.683594 193.660156 C 171.574219 192.703125 173.722656 192.539062 175.738281 193.199219 L 185.035156 196.25 Z M 173.261719 195.875 C 172.507812 195.875 171.761719 196.050781 171.066406 196.402344 C 169.910156 196.988281 169.046875 197.992188 168.640625 199.226562 L 163.597656 214.621094 C 163.191406 215.855469 163.292969 217.175781 163.878906 218.335938 C 164.464844 219.496094 165.46875 220.359375 166.703125 220.765625 L 173.082031 222.855469 L 181.160156 198.210938 L 174.78125 196.121094 C 174.285156 195.957031 173.769531 195.875 173.261719 195.875 Z M 173.261719 195.875 " fill-opacity="1" fill-rule="nonzero"/><path fill="#9dc6dc" d="M 217.707031 273.566406 L 205.464844 269.550781 C 178.683594 260.765625 164.09375 231.929688 172.875 205.144531 C 181.65625 178.355469 210.480469 163.761719 237.261719 172.546875 L 249.503906 176.5625 C 276.28125 185.34375 290.871094 214.179688 282.09375 240.96875 C 273.3125 267.753906 244.484375 282.351562 217.707031 273.566406 Z M 217.707031 273.566406 " fill-opacity="1" fill-rule="nonzero"/><path fill="#3f395d" d="M 233.566406 277.648438 C 228.152344 277.648438 222.648438 276.804688 217.230469 275.027344 L 204.984375 271.011719 C 191.644531 266.632812 180.804688 257.324219 174.464844 244.792969 C 168.125 232.261719 167.042969 218.011719 171.414062 204.664062 C 180.445312 177.117188 210.199219 162.050781 237.738281 171.085938 L 249.984375 175.101562 C 263.324219 179.476562 274.164062 188.789062 280.503906 201.320312 C 286.84375 213.851562 287.925781 228.101562 283.550781 241.445312 C 276.296875 263.574219 255.675781 277.648438 233.566406 277.648438 Z M 218.183594 272.105469 C 244.117188 280.613281 272.128906 266.429688 280.632812 240.488281 C 284.753906 227.921875 283.734375 214.503906 277.761719 202.707031 C 271.792969 190.90625 261.585938 182.140625 249.027344 178.019531 L 236.78125 174.003906 C 210.851562 165.5 182.835938 179.683594 174.335938 205.621094 C 170.214844 218.1875 171.234375 231.605469 177.203125 243.40625 C 183.175781 255.203125 193.378906 263.972656 205.941406 268.089844 Z M 218.183594 272.105469 " fill-opacity="1" fill-rule="nonzero"/><path fill="#46446c" d="M 218.261719 265.753906 L 209.644531 262.925781 C 190.792969 256.742188 180.523438 236.449219 186.703125 217.59375 C 192.886719 198.738281 213.175781 188.464844 232.023438 194.648438 L 240.640625 197.472656 C 259.488281 203.65625 269.757812 223.953125 263.578125 242.808594 C 257.398438 261.664062 237.109375 271.933594 218.261719 265.753906 Z M 218.261719 265.753906 " fill-opacity="1" fill-rule="nonzero"/><path fill="#3f395d" d="M 229.425781 269.082031 C 225.566406 269.082031 221.640625 268.476562 217.78125 267.210938 L 209.164062 264.386719 C 189.542969 257.949219 178.8125 236.742188 185.246094 217.113281 C 188.363281 207.605469 194.996094 199.878906 203.921875 195.359375 C 212.84375 190.839844 222.996094 190.070312 232.5 193.1875 L 241.121094 196.015625 C 250.625 199.132812 258.347656 205.765625 262.867188 214.695312 C 267.382812 223.625 268.15625 233.777344 265.039062 243.285156 C 259.871094 259.054688 245.175781 269.078125 229.425781 269.082031 Z M 220.796875 194.378906 C 215.476562 194.378906 210.191406 195.628906 205.308594 198.101562 C 197.113281 202.25 191.027344 209.34375 188.164062 218.070312 C 182.257812 236.089844 192.109375 255.558594 210.121094 261.464844 L 218.738281 264.292969 C 222.28125 265.457031 225.882812 266.007812 229.425781 266.007812 C 243.886719 266.007812 257.375 256.804688 262.121094 242.328125 C 264.980469 233.601562 264.273438 224.277344 260.125 216.082031 C 255.980469 207.886719 248.890625 201.796875 240.164062 198.933594 L 231.546875 196.105469 C 228.023438 194.953125 224.402344 194.378906 220.796875 194.378906 Z M 220.796875 194.378906 " fill-opacity="1" fill-rule="nonzero"/><path fill="#41e9ec" d="M 206.46875 172.222656 L 206.835938 195.9375 C 219.609375 214.527344 237.171875 220.914062 260.175781 213.433594 L 274.507812 194.539062 C 268.441406 186.390625 259.890625 179.96875 249.503906 176.5625 L 237.261719 172.546875 C 226.875 169.136719 216.183594 169.25 206.46875 172.222656 Z M 206.46875 172.222656 " fill-opacity="1" fill-rule="nonzero"/><path fill="#3f395d" d="M 242.503906 218.015625 C 227.648438 218.015625 215.273438 210.925781 205.570312 196.808594 L 205.308594 196.425781 L 204.917969 171.09375 L 206.019531 170.753906 C 216.414062 167.574219 227.378906 167.6875 237.738281 171.085938 L 249.984375 175.101562 C 260.339844 178.5 269.246094 184.902344 275.738281 193.621094 L 276.429688 194.550781 L 261.109375 214.746094 L 260.652344 214.894531 C 254.246094 216.976562 248.195312 218.015625 242.503906 218.015625 Z M 208.363281 195.445312 C 220.976562 213.542969 237.625 219 259.246094 212.117188 L 272.578125 194.542969 C 266.53125 186.800781 258.414062 181.101562 249.027344 178.019531 L 236.78125 174.003906 C 227.394531 170.925781 217.476562 170.710938 208.023438 173.367188 Z M 208.363281 195.445312 " fill-opacity="1" fill-rule="nonzero"/><path fill="#41e9ec" d="M 247.835938 239.105469 C 247.835938 239.472656 247.796875 239.835938 247.726562 240.195312 C 247.65625 240.558594 247.550781 240.90625 247.410156 241.246094 C 247.269531 241.585938 247.09375 241.90625 246.890625 242.214844 C 246.6875 242.519531 246.457031 242.800781 246.195312 243.0625 C 245.9375 243.320312 245.652344 243.550781 245.347656 243.757812 C 245.042969 243.960938 244.722656 244.132812 244.382812 244.273438 C 244.042969 244.414062 243.691406 244.519531 243.332031 244.59375 C 242.972656 244.664062 242.609375 244.699219 242.242188 244.699219 C 241.875 244.699219 241.511719 244.664062 241.152344 244.59375 C 240.789062 244.519531 240.441406 244.414062 240.101562 244.273438 C 239.761719 244.132812 239.441406 243.960938 239.132812 243.757812 C 238.828125 243.550781 238.546875 243.320312 238.289062 243.0625 C 238.027344 242.800781 237.796875 242.519531 237.589844 242.214844 C 237.386719 241.90625 237.214844 241.585938 237.074219 241.246094 C 236.933594 240.90625 236.828125 240.558594 236.757812 240.195312 C 236.683594 239.835938 236.648438 239.472656 236.648438 239.105469 C 236.648438 238.738281 236.683594 238.375 236.757812 238.015625 C 236.828125 237.652344 236.933594 237.304688 237.074219 236.964844 C 237.214844 236.625 237.386719 236.300781 237.589844 235.996094 C 237.796875 235.691406 238.027344 235.410156 238.289062 235.148438 C 238.546875 234.890625 238.828125 234.65625 239.132812 234.453125 C 239.441406 234.25 239.761719 234.078125 240.101562 233.9375 C 240.441406 233.796875 240.789062 233.691406 241.152344 233.617188 C 241.511719 233.546875 241.875 233.511719 242.242188 233.511719 C 242.609375 233.511719 242.972656 233.546875 243.332031 233.617188 C 243.691406 233.691406 244.042969 233.796875 244.382812 233.9375 C 244.722656 234.078125 245.042969 234.25 245.347656 234.453125 C 245.652344 234.65625 245.9375 234.890625 246.195312 235.148438 C 246.457031 235.410156 246.6875 235.691406 246.890625 235.996094 C 247.09375 236.300781 247.269531 236.625 247.410156 236.964844 C 247.550781 237.304688 247.65625 237.652344 247.726562 238.015625 C 247.796875 238.375 247.835938 238.738281 247.835938 239.105469 Z M 247.835938 239.105469 " fill-opacity="1" fill-rule="nonzero"/><path fill="#41e9ec" d="M 211.683594 227.246094 C 211.683594 227.613281 211.648438 227.980469 211.574219 228.339844 C 211.503906 228.699219 211.398438 229.050781 211.257812 229.386719 C 211.117188 229.726562 210.945312 230.050781 210.742188 230.355469 C 210.535156 230.660156 210.304688 230.945312 210.046875 231.203125 C 209.785156 231.464844 209.503906 231.695312 209.199219 231.898438 C 208.894531 232.101562 208.570312 232.277344 208.230469 232.417969 C 207.890625 232.558594 207.542969 232.664062 207.183594 232.734375 C 206.820312 232.804688 206.457031 232.84375 206.089844 232.84375 C 205.722656 232.84375 205.359375 232.804688 205 232.734375 C 204.640625 232.664062 204.289062 232.558594 203.949219 232.417969 C 203.613281 232.277344 203.289062 232.101562 202.984375 231.898438 C 202.679688 231.695312 202.394531 231.464844 202.136719 231.203125 C 201.878906 230.945312 201.644531 230.660156 201.441406 230.355469 C 201.238281 230.050781 201.066406 229.726562 200.925781 229.386719 C 200.785156 229.050781 200.679688 228.699219 200.605469 228.339844 C 200.535156 227.980469 200.5 227.613281 200.5 227.246094 C 200.5 226.878906 200.535156 226.515625 200.605469 226.15625 C 200.679688 225.796875 200.785156 225.445312 200.925781 225.105469 C 201.066406 224.765625 201.238281 224.445312 201.441406 224.140625 C 201.644531 223.835938 201.878906 223.550781 202.136719 223.292969 C 202.394531 223.03125 202.679688 222.800781 202.984375 222.597656 C 203.289062 222.390625 203.613281 222.21875 203.949219 222.078125 C 204.289062 221.9375 204.640625 221.832031 205 221.761719 C 205.359375 221.6875 205.722656 221.652344 206.089844 221.652344 C 206.457031 221.652344 206.820312 221.6875 207.183594 221.761719 C 207.542969 221.832031 207.890625 221.9375 208.230469 222.078125 C 208.570312 222.21875 208.894531 222.390625 209.199219 222.597656 C 209.503906 222.800781 209.785156 223.03125 210.046875 223.292969 C 210.304688 223.550781 210.535156 223.835938 210.742188 224.140625 C 210.945312 224.445312 211.117188 224.765625 211.257812 225.105469 C 211.398438 225.445312 211.503906 225.796875 211.574219 226.15625 C 211.648438 226.515625 211.683594 226.878906 211.683594 227.246094 Z M 211.683594 227.246094 " fill-opacity="1" fill-rule="nonzero"/><path fill="#41e9ec" d="M 224.363281 250.484375 C 222.539062 250.484375 220.636719 250.175781 218.75 249.546875 C 213.667969 247.855469 209.910156 244.316406 208.703125 240.078125 C 208.46875 239.261719 208.941406 238.414062 209.757812 238.179688 C 210.570312 237.949219 211.421875 238.417969 211.65625 239.234375 C 212.570312 242.449219 215.660156 245.28125 219.71875 246.632812 C 223.824219 247.996094 227.917969 247.558594 230.671875 245.460938 C 231.347656 244.949219 232.308594 245.078125 232.824219 245.753906 C 233.339844 246.429688 233.207031 247.390625 232.535156 247.90625 C 230.300781 249.609375 227.4375 250.484375 224.363281 250.484375 Z M 224.363281 250.484375 " fill-opacity="1" fill-rule="nonzero"/><path fill="#46446c" d="M 244.824219 170.175781 C 245.730469 170.476562 246.632812 170.789062 247.523438 171.121094 C 248.414062 171.449219 249.296875 171.792969 250.164062 172.15625 C 251.03125 172.515625 251.882812 172.886719 252.71875 173.273438 C 253.554688 173.660156 254.371094 174.054688 255.164062 174.464844 C 255.960938 174.875 256.730469 175.289062 257.476562 175.71875 C 258.226562 176.144531 258.945312 176.578125 259.636719 177.019531 C 260.328125 177.460938 260.988281 177.90625 261.617188 178.355469 C 262.246094 178.808594 262.839844 179.261719 263.402344 179.71875 C 263.964844 180.171875 264.488281 180.628906 264.976562 181.089844 C 265.464844 181.546875 265.914062 182.003906 266.320312 182.457031 C 266.730469 182.910156 267.101562 183.363281 267.425781 183.808594 C 267.753906 184.257812 268.039062 184.699219 268.28125 185.132812 C 268.523438 185.570312 268.722656 185.996094 268.875 186.414062 C 269.03125 186.835938 269.140625 187.246094 269.207031 187.644531 C 269.269531 188.042969 269.289062 188.429688 269.265625 188.804688 C 269.242188 189.179688 269.171875 189.542969 269.058594 189.890625 C 268.945312 190.238281 268.785156 190.570312 268.582031 190.886719 C 268.382812 191.203125 268.136719 191.503906 267.847656 191.789062 C 267.558594 192.070312 267.226562 192.335938 266.855469 192.582031 C 266.480469 192.828125 266.070312 193.054688 265.617188 193.261719 C 265.164062 193.46875 264.671875 193.65625 264.144531 193.824219 C 263.617188 193.988281 263.050781 194.136719 262.453125 194.257812 C 261.855469 194.382812 261.222656 194.484375 260.558594 194.5625 C 259.894531 194.644531 259.199219 194.703125 258.476562 194.738281 C 257.753906 194.773438 257.007812 194.785156 256.234375 194.777344 C 255.460938 194.765625 254.664062 194.734375 253.84375 194.679688 C 253.027344 194.625 252.191406 194.550781 251.335938 194.449219 C 250.480469 194.351562 249.613281 194.230469 248.730469 194.089844 C 247.847656 193.949219 246.957031 193.785156 246.054688 193.601562 C 245.152344 193.417969 244.246094 193.214844 243.332031 192.988281 C 242.421875 192.765625 241.507812 192.519531 240.59375 192.257812 C 239.679688 191.996094 238.765625 191.714844 237.859375 191.417969 C 236.953125 191.121094 236.050781 190.808594 235.160156 190.476562 C 234.265625 190.144531 233.386719 189.800781 232.519531 189.441406 C 231.652344 189.082031 230.800781 188.707031 229.964844 188.324219 C 229.128906 187.9375 228.3125 187.539062 227.519531 187.132812 C 226.722656 186.722656 225.953125 186.304688 225.207031 185.878906 C 224.457031 185.453125 223.738281 185.019531 223.046875 184.578125 C 222.355469 184.136719 221.695312 183.691406 221.066406 183.238281 C 220.4375 182.789062 219.84375 182.335938 219.28125 181.878906 C 218.71875 181.421875 218.195312 180.964844 217.707031 180.507812 C 217.21875 180.050781 216.769531 179.59375 216.363281 179.140625 C 215.953125 178.683594 215.582031 178.234375 215.257812 177.785156 C 214.929688 177.339844 214.644531 176.898438 214.402344 176.460938 C 214.160156 176.027344 213.960938 175.601562 213.808594 175.179688 C 213.652344 174.761719 213.542969 174.351562 213.476562 173.953125 C 213.414062 173.554688 213.390625 173.164062 213.417969 172.789062 C 213.441406 172.414062 213.511719 172.054688 213.625 171.707031 C 213.738281 171.359375 213.898438 171.027344 214.097656 170.707031 C 214.300781 170.390625 214.546875 170.089844 214.835938 169.808594 C 215.125 169.523438 215.457031 169.261719 215.828125 169.015625 C 216.203125 168.769531 216.613281 168.539062 217.066406 168.332031 C 217.519531 168.125 218.011719 167.9375 218.539062 167.773438 C 219.066406 167.605469 219.632812 167.460938 220.230469 167.335938 C 220.828125 167.214844 221.460938 167.113281 222.125 167.03125 C 222.789062 166.953125 223.480469 166.894531 224.203125 166.859375 C 224.925781 166.824219 225.675781 166.808594 226.449219 166.820312 C 227.222656 166.828125 228.019531 166.859375 228.835938 166.914062 C 229.65625 166.96875 230.492188 167.046875 231.347656 167.144531 C 232.199219 167.242188 233.070312 167.363281 233.953125 167.507812 C 234.832031 167.648438 235.726562 167.8125 236.628906 167.996094 C 237.53125 168.179688 238.4375 168.382812 239.347656 168.605469 C 240.261719 168.832031 241.175781 169.074219 242.089844 169.335938 C 243.003906 169.597656 243.914062 169.878906 244.824219 170.175781 Z M 244.824219 170.175781 " fill-opacity="1" fill-rule="nonzero"/><path fill="#3f395d" d="M 256.6875 196.304688 C 250.972656 196.304688 244.199219 195.105469 237.378906 192.867188 C 229.800781 190.382812 223.027344 186.898438 218.308594 183.0625 C 213.203125 178.90625 211.019531 174.703125 212.164062 171.21875 C 213.304688 167.734375 217.554688 165.636719 224.125 165.3125 C 230.203125 165.019531 237.722656 166.222656 245.296875 168.707031 C 252.875 171.191406 259.648438 174.675781 264.367188 178.511719 C 269.472656 182.667969 271.65625 186.871094 270.515625 190.355469 C 269.371094 193.839844 265.125 195.9375 258.550781 196.261719 C 257.945312 196.289062 257.324219 196.304688 256.6875 196.304688 Z M 226.003906 168.339844 C 225.414062 168.339844 224.839844 168.355469 224.277344 168.382812 C 219.214844 168.632812 215.777344 170.046875 215.082031 172.175781 C 214.382812 174.300781 216.316406 177.480469 220.246094 180.675781 C 224.683594 184.285156 231.105469 187.578125 238.335938 189.949219 C 253.808594 195.023438 266.175781 193.734375 267.597656 189.398438 C 268.292969 187.273438 266.363281 184.09375 262.429688 180.898438 C 257.996094 177.289062 251.570312 173.996094 244.34375 171.625 C 237.824219 169.488281 231.390625 168.339844 226.003906 168.339844 Z M 226.003906 168.339844 " fill-opacity="1" fill-rule="nonzero"/><path fill="#41e9ec" d="M 245.488281 168.152344 C 246.089844 168.351562 246.679688 168.566406 247.253906 168.804688 C 247.832031 169.042969 248.382812 169.292969 248.914062 169.558594 C 249.441406 169.828125 249.9375 170.105469 250.394531 170.390625 C 250.855469 170.675781 251.273438 170.96875 251.648438 171.265625 C 252.023438 171.558594 252.347656 171.855469 252.621094 172.148438 C 252.898438 172.441406 253.117188 172.726562 253.28125 173.003906 C 253.445312 173.285156 253.550781 173.550781 253.59375 173.804688 C 253.640625 174.0625 253.628906 174.296875 253.558594 174.519531 C 253.484375 174.738281 253.355469 174.9375 253.167969 175.117188 C 252.976562 175.292969 252.734375 175.445312 252.4375 175.574219 C 252.140625 175.703125 251.792969 175.804688 251.398438 175.878906 C 251.003906 175.949219 250.570312 175.996094 250.09375 176.011719 C 249.617188 176.027344 249.105469 176.015625 248.566406 175.972656 C 248.023438 175.929688 247.460938 175.863281 246.878906 175.761719 C 246.292969 175.664062 245.699219 175.539062 245.097656 175.390625 C 244.492188 175.238281 243.886719 175.066406 243.285156 174.867188 C 242.683594 174.671875 242.09375 174.453125 241.515625 174.214844 C 240.941406 173.980469 240.386719 173.726562 239.859375 173.460938 C 239.332031 173.195312 238.835938 172.917969 238.375 172.628906 C 237.914062 172.34375 237.496094 172.054688 237.125 171.757812 C 236.75 171.460938 236.425781 171.167969 236.148438 170.875 C 235.875 170.582031 235.65625 170.296875 235.492188 170.015625 C 235.328125 169.738281 235.222656 169.46875 235.175781 169.214844 C 235.128906 168.960938 235.144531 168.722656 235.214844 168.503906 C 235.289062 168.28125 235.417969 168.082031 235.605469 167.90625 C 235.792969 167.726562 236.039062 167.574219 236.335938 167.445312 C 236.632812 167.320312 236.976562 167.21875 237.371094 167.144531 C 237.765625 167.070312 238.203125 167.027344 238.679688 167.007812 C 239.15625 166.992188 239.664062 167.007812 240.207031 167.046875 C 240.746094 167.089844 241.308594 167.160156 241.894531 167.257812 C 242.476562 167.355469 243.070312 167.480469 243.675781 167.632812 C 244.28125 167.78125 244.882812 167.957031 245.488281 168.152344 Z M 245.488281 168.152344 " fill-opacity="1" fill-rule="nonzero"/><path fill="#3f395d" d="M 249.683594 177.542969 C 247.558594 177.542969 245.09375 177.066406 242.804688 176.316406 C 240.1875 175.460938 237.832031 174.265625 236.167969 172.953125 C 233.519531 170.863281 233.390625 169.113281 233.753906 168.015625 C 234.113281 166.914062 235.25 165.578125 238.625 165.464844 C 240.738281 165.390625 243.34375 165.824219 245.960938 166.683594 C 248.578125 167.542969 250.933594 168.738281 252.597656 170.046875 C 255.246094 172.136719 255.375 173.886719 255.011719 174.988281 C 254.414062 176.816406 252.308594 177.542969 249.683594 177.542969 Z M 236.6875 168.976562 C 236.839844 169.675781 239.003906 171.835938 243.761719 173.398438 C 248.519531 174.957031 251.542969 174.496094 252.078125 174.023438 C 251.925781 173.328125 249.761719 171.164062 245.003906 169.601562 C 240.246094 168.042969 237.222656 168.503906 236.6875 168.976562 Z M 236.6875 168.976562 " fill-opacity="1" fill-rule="nonzero"/><path fill="#3f395d" d="M 281.746094 246.386719 C 281.585938 246.386719 281.425781 246.363281 281.265625 246.308594 L 264.257812 240.730469 C 263.453125 240.46875 263.015625 239.597656 263.277344 238.792969 C 263.542969 237.988281 264.410156 237.546875 265.214844 237.8125 L 282.222656 243.390625 C 283.03125 243.65625 283.46875 244.523438 283.203125 245.328125 C 282.992188 245.976562 282.390625 246.386719 281.746094 246.386719 Z M 281.746094 246.386719 " fill-opacity="1" fill-rule="nonzero"/><path fill="#3f395d" d="M 188.699219 215.867188 C 188.542969 215.867188 188.378906 215.84375 188.222656 215.789062 L 171.214844 210.210938 C 170.40625 209.949219 169.96875 209.082031 170.234375 208.273438 C 170.496094 207.46875 171.367188 207.027344 172.171875 207.292969 L 189.179688 212.871094 C 189.984375 213.136719 190.421875 214.003906 190.160156 214.808594 C 189.945312 215.457031 189.34375 215.867188 188.699219 215.867188 Z M 188.699219 215.867188 " fill-opacity="1" fill-rule="nonzero"/><path fill="#9dc6dc" d="M 286.375 231.105469 C 252.414062 211.605469 214.816406 199.273438 175.90625 194.871094 C 177 185.199219 178.09375 175.527344 179.1875 165.851562 C 222.0625 170.703125 263.488281 184.292969 300.90625 205.777344 C 296.0625 214.21875 291.21875 222.664062 286.375 231.105469 Z M 286.375 231.105469 " fill-opacity="1" fill-rule="nonzero"/><path fill="#3f395d" d="M 286.941406 233.203125 L 285.613281 232.4375 C 251.632812 212.929688 214.664062 200.804688 175.734375 196.398438 L 174.207031 196.226562 L 177.835938 164.152344 L 179.363281 164.328125 C 200.800781 166.753906 222.070312 171.394531 242.570312 178.117188 C 263.074219 184.84375 282.960938 193.699219 301.671875 204.445312 L 303.003906 205.210938 Z M 177.605469 193.523438 C 196.554688 195.769531 215.34375 199.921875 233.476562 205.867188 C 251.605469 211.816406 269.203125 219.597656 285.804688 229.011719 L 298.808594 206.347656 C 262.164062 185.539062 222.390625 172.496094 180.542969 167.554688 Z M 177.605469 193.523438 " fill-opacity="1" fill-rule="nonzero"/><path fill="#ffffff" d="M 286.375 231.105469 C 252.414062 211.605469 214.816406 199.273438 175.90625 194.871094 C 177 185.199219 178.09375 175.527344 179.1875 165.851562 C 222.0625 170.703125 263.488281 184.292969 300.90625 205.777344 C 296.0625 214.21875 291.21875 222.664062 286.375 231.105469 Z M 286.375 231.105469 " fill-opacity="1" fill-rule="nonzero"/><path fill="#3f395d" d="M 286.941406 233.203125 L 285.613281 232.4375 C 251.632812 212.929688 214.664062 200.804688 175.734375 196.398438 L 174.207031 196.226562 L 177.835938 164.152344 L 179.363281 164.328125 C 200.800781 166.753906 222.070312 171.394531 242.570312 178.117188 C 263.074219 184.84375 282.960938 193.699219 301.671875 204.445312 L 303.003906 205.210938 Z M 177.605469 193.523438 C 196.554688 195.769531 215.34375 199.921875 233.476562 205.867188 C 251.605469 211.816406 269.203125 219.597656 285.804688 229.011719 L 298.808594 206.347656 C 262.164062 185.539062 222.390625 172.496094 180.542969 167.554688 Z M 177.605469 193.523438 " fill-opacity="1" fill-rule="nonzero"/><path fill="#ffffff" d="M 307.652344 155.015625 C 303.792969 153.640625 299.847656 153.101562 296.011719 153.300781 C 299.042969 135.675781 285.929688 116.949219 264.851562 110.035156 C 243.703125 103.101562 221.980469 110.496094 214.054688 126.601562 C 211.074219 124.085938 207.554688 122.109375 203.585938 120.875 C 188.0625 116.050781 171.375 124.605469 166.21875 140.027344 C 160.9375 155.835938 169.523438 172.902344 185.335938 178.085938 C 189.296875 179.386719 193.332031 179.816406 197.238281 179.480469 C 202.847656 179 208.488281 179 214.074219 179.699219 C 231.855469 181.925781 248.535156 187.367188 264.09375 196.070312 C 268.972656 198.796875 273.496094 202.105469 277.683594 205.808594 C 280.65625 208.4375 284.199219 210.515625 288.207031 211.832031 C 304.019531 217.015625 321.042969 208.351562 326.140625 192.484375 C 331.082031 177.113281 322.855469 160.433594 307.652344 155.015625 Z M 307.652344 155.015625 " fill-opacity="1" fill-rule="nonzero"/><path fill="#3f395d" d="M 297.597656 214.878906 C 294.289062 214.878906 290.964844 214.351562 287.730469 213.289062 C 283.613281 211.9375 279.890625 209.808594 276.667969 206.957031 C 272.394531 203.175781 267.910156 199.964844 263.34375 197.410156 C 248.074219 188.867188 231.433594 183.421875 213.882812 181.222656 C 208.691406 180.570312 203.289062 180.503906 197.367188 181.011719 C 193.132812 181.375 188.925781 180.882812 184.855469 179.546875 C 176.816406 176.910156 170.292969 171.289062 166.492188 163.726562 C 162.695312 156.160156 162.078125 147.570312 164.765625 139.539062 C 170.164062 123.386719 187.785156 114.355469 204.042969 119.410156 C 207.503906 120.484375 210.699219 122.109375 213.5625 124.25 C 222.550781 108.449219 244.398438 101.710938 265.328125 108.578125 C 286.167969 115.414062 299.800781 133.726562 297.785156 151.726562 C 301.3125 151.75 304.796875 152.367188 308.167969 153.570312 C 315.898438 156.324219 322.167969 161.921875 325.828125 169.335938 C 329.484375 176.75 330.117188 185.136719 327.601562 192.953125 C 325.011719 201.015625 319.433594 207.574219 311.894531 211.417969 C 307.386719 213.714844 302.507812 214.878906 297.597656 214.878906 Z M 204.867188 177.609375 C 208.117188 177.609375 211.261719 177.796875 214.265625 178.175781 C 232.210938 180.421875 249.226562 185.992188 264.84375 194.730469 C 269.601562 197.390625 274.265625 200.730469 278.703125 204.65625 C 281.609375 207.226562 284.96875 209.152344 288.6875 210.371094 C 295.945312 212.75 303.691406 212.152344 310.5 208.679688 C 317.304688 205.210938 322.339844 199.289062 324.679688 192.011719 C 329.339844 177.515625 321.46875 161.570312 307.136719 156.460938 C 303.5625 155.1875 299.847656 154.640625 296.089844 154.835938 L 294.171875 154.9375 L 294.5 153.042969 C 297.4375 135.953125 284.484375 118.09375 264.371094 111.496094 C 244.164062 104.867188 223.121094 111.652344 215.429688 127.28125 L 214.5625 129.042969 L 213.0625 127.773438 C 210.148438 125.3125 206.804688 123.484375 203.132812 122.34375 C 188.453125 117.78125 172.550781 125.933594 167.675781 140.515625 C 165.253906 147.765625 165.808594 155.515625 169.238281 162.34375 C 172.667969 169.175781 178.554688 174.246094 185.8125 176.628906 C 189.488281 177.832031 193.285156 178.277344 197.105469 177.949219 C 199.75 177.722656 202.339844 177.609375 204.867188 177.609375 Z M 204.867188 177.609375 " fill-opacity="1" fill-rule="nonzero"/><path fill="#9dc6dc" d="M 199.46875 160.710938 C 199.46875 160.710938 198.976562 172.070312 208.433594 179.246094 " fill-opacity="1" fill-rule="nonzero"/><path fill="#3f395d" d="M 207.503906 180.46875 C 197.523438 172.894531 197.914062 161.140625 197.933594 160.644531 L 201.003906 160.777344 L 199.46875 160.710938 L 201.003906 160.773438 C 200.996094 160.878906 200.691406 171.441406 209.359375 178.023438 Z M 207.503906 180.46875 " fill-opacity="1" fill-rule="nonzero"/><path fill="#9dc6dc" d="M 287.601562 189.617188 C 287.601562 189.617188 281.273438 199.0625 269.40625 199.246094 " fill-opacity="1" fill-rule="nonzero"/><path fill="#3f395d" d="M 269.429688 200.78125 L 269.382812 197.710938 C 280.265625 197.542969 286.269531 188.847656 286.328125 188.761719 L 288.878906 190.472656 C 288.601562 190.886719 281.957031 200.589844 269.429688 200.78125 Z M 269.429688 200.78125 " fill-opacity="1" fill-rule="nonzero"/></svg>